<svg width="95" height="83" viewBox="0 0 95 83" fill="none" xmlns="http://www.w3.org/2000/svg">
<path d="M10.5837 79.2674C10.5837 79.2674 -3.27976 69.7776 0.726874 60.2611C3.06203 54.6632 13.263 56.7424 12.1814 47.4392C10.7803 35.2304 -0.403834 26.9934 6.03628 16.544C12.673 5.77463 26.7819 18.3059 42.9805 6.92342C53.4519 -0.433853 74.5916 -4.22166 81.3513 7.45401C87.816 18.6232 74.9111 31.0186 84.2764 39.3622C93.6416 47.7058 104.359 60.2878 80.6876 75.1089C57.0165 89.9301 38.0648 78.4943 38.0648 78.4943" fill="#9CD3D8"/>
<path d="M15.9194 4.96362C16.5791 6.89367 24.6169 6.77152 28.7702 6.03859C32.9235 5.33009 33.3144 3.83979 30.7247 2.12962C28.0861 0.395015 14.649 1.2501 15.9194 4.96362Z" fill="#9CD3D8"/>
<path d="M37.8345 2.66707C36.0021 1.39665 32.3375 4.96359 35.7578 4.96359C39.1537 4.96359 39.0804 3.54659 37.8345 2.66707Z" fill="#9CD3D8"/>
<path d="M9.27011 27.4428C6.82701 27.0519 9.12353 34.2102 12.5927 33.2818C16.0864 32.3534 11.2979 27.7848 9.27011 27.4428Z" fill="#E2F1FF"/>
<path d="M7.90217 23.3872C6.50961 23.9002 6.97379 26.9297 9.05043 26.2701C11.1026 25.6348 9.27031 22.8986 7.90217 23.3872Z" fill="#E2F1FF"/>
<path d="M45.7459 46.0104L46.0635 43.665C46.2346 42.419 45.4283 41.3929 44.2801 41.3929H25.4926L24.8818 46.0104L24.5154 48.8688L20.9729 75.5964C20.582 78.5037 22.4387 80.8735 25.1261 80.8735H66.1703C68.8333 80.8735 71.3253 78.5037 71.7161 75.5964L75.6251 46.0104H45.7459Z" fill="#060A0E"/>
<path d="M60.624 51.8494C51.951 46.7189 43.278 41.6128 34.605 36.4823C47.016 29.7149 40.7127 11.9046 53.1237 5.13724C61.7967 10.2678 70.4698 15.3738 79.1428 20.5044C66.7318 27.2718 73.035 45.1064 60.624 51.8494Z" fill="white"/>
<path d="M54.9069 30.9364C51.5598 28.9575 48.2128 26.9786 44.8657 24.9996C46.5515 18.843 47.4065 12.2222 52.3416 7.99564C55.6887 9.97455 59.0357 11.9535 62.3828 13.9324C57.4477 18.159 56.5926 24.7798 54.9069 30.9364Z" fill="#D9D9D9"/>
<path d="M73.7681 22.3123C70.2256 20.2112 66.6831 18.1101 63.1162 16.0335C63.4582 15.667 63.8003 15.325 64.1912 15.0074C67.7337 17.1085 71.2762 19.2095 74.8431 21.2862C74.4766 21.6282 74.1102 21.9702 73.7681 22.3123Z" fill="#9CD3D8"/>
<path d="M67.6359 21.0907C65.7058 19.9424 63.7513 18.7942 61.8213 17.6459C61.9923 17.4016 62.1878 17.1573 62.3832 16.913C64.3133 18.0612 66.2677 19.2095 68.1978 20.3577C68.0023 20.5776 67.8069 20.8219 67.6359 21.0907Z" fill="#868686"/>
<path d="M50.2409 29.9347C48.3108 28.7865 46.3563 27.6382 44.4263 26.4899C44.524 26.1968 44.5973 25.8792 44.695 25.586C46.6251 26.7343 48.5795 27.8825 50.5096 29.0308C50.4119 29.3484 50.3386 29.6416 50.2409 29.9347Z" fill="#868686"/>
<path d="M54.1994 33.2818C50.8523 31.3029 47.5053 29.324 44.1582 27.3451C44.2071 27.1985 44.2559 27.0519 44.3048 26.9053C47.6518 28.8842 50.9989 30.8631 54.3459 32.842C54.2971 32.9886 54.2482 33.1352 54.1994 33.2818Z" fill="#D9D9D9"/>
<path d="M53.9303 34.1125C50.5833 32.1335 47.2362 30.1546 43.8892 28.1757C43.938 28.0291 43.9869 27.8825 44.0357 27.736C47.3828 29.7149 50.7299 31.6938 54.0769 33.6727C54.028 33.8193 53.9792 33.9659 53.9303 34.1125Z" fill="#D9D9D9"/>
<path d="M71.5211 25.4394C67.9786 23.3384 64.4361 21.2373 60.8691 19.1606C60.918 19.0629 60.9669 18.9652 61.0402 18.8919C64.5827 20.993 68.1252 23.094 71.6921 25.1707C71.6188 25.2684 71.5699 25.3417 71.5211 25.4394Z" fill="#D9D9D9"/>
<path d="M70.7389 26.9541C67.1964 24.8531 63.6538 22.752 60.0869 20.6753C60.1358 20.5776 60.1846 20.4799 60.2335 20.3822C63.776 22.4832 67.3185 24.5843 70.8854 26.661C70.8366 26.7587 70.7877 26.8564 70.7389 26.9541Z" fill="#D9D9D9"/>
<path d="M70.1036 28.5421C66.5611 26.4411 63.0186 24.34 59.4517 22.2634C59.5005 22.1656 59.525 22.0679 59.5738 21.9702C63.1163 24.0713 66.6588 26.1723 70.2258 28.249C70.1769 28.3467 70.128 28.4444 70.1036 28.5421Z" fill="#D9D9D9"/>
<path d="M69.5416 30.1791C65.9991 28.078 62.4566 25.9769 58.8896 23.9003C58.9141 23.8026 58.9629 23.6804 58.9874 23.5827C62.5299 25.6838 66.0724 27.7848 69.6393 29.8615C69.5904 29.9836 69.566 30.0814 69.5416 30.1791Z" fill="#D9D9D9"/>
<path d="M69.0279 31.8648C65.4854 29.7637 61.9429 27.6627 58.376 25.586C58.4004 25.4883 58.4248 25.3662 58.4737 25.2684C62.0162 27.3695 65.5587 29.4706 69.1256 31.5472C69.1012 31.6449 69.0768 31.7671 69.0279 31.8648Z" fill="#D9D9D9"/>
<path d="M68.5889 33.575C65.0464 31.4739 61.5039 29.3728 57.937 27.2962C57.9614 27.1985 57.9859 27.0763 58.0103 26.9786C61.5528 29.0796 65.0953 31.1807 68.6622 33.2574C68.6378 33.3551 68.6134 33.4528 68.5889 33.575Z" fill="#D9D9D9"/>
<path d="M68.149 35.2851C64.6065 33.1841 61.064 31.083 57.4971 29.0064C57.5215 28.9086 57.5459 28.7865 57.5704 28.6888C61.1129 30.7898 64.6554 32.8909 68.2223 34.9675C68.1979 35.0653 68.1734 35.1874 68.149 35.2851Z" fill="#D9D9D9"/>
<path d="M67.7335 36.9953C64.191 34.8942 60.6485 32.7932 57.0815 30.7165C57.106 30.6188 57.1304 30.4966 57.1548 30.3989C60.6973 32.5 64.2398 34.6011 67.8068 36.6777C67.7823 36.7999 67.7579 36.8976 67.7335 36.9953Z" fill="#D9D9D9"/>
<path d="M67.2691 38.7055C63.7266 36.6044 60.1841 34.5034 56.6172 32.4267C56.6416 32.329 56.6661 32.2069 56.7149 32.1091C60.2574 34.2102 63.7999 36.3113 67.3668 38.3879C67.318 38.4856 67.2936 38.6078 67.2691 38.7055Z" fill="#D9D9D9"/>
<path d="M66.7564 40.3912C63.2139 38.2901 59.6714 36.1891 56.1045 34.1124C56.1289 34.0147 56.1778 33.8926 56.2022 33.7948C59.7447 35.8959 63.2872 37.997 66.8542 40.0736C66.8297 40.1713 66.8053 40.2691 66.7564 40.3912Z" fill="#D9D9D9"/>
<path d="M66.1949 42.0037C62.6524 39.9026 59.1099 37.8015 55.543 35.7249C55.5918 35.6272 55.6163 35.5295 55.6651 35.4317C59.2076 37.5328 62.7501 39.6339 66.3171 41.7105C66.2682 41.8082 66.2438 41.906 66.1949 42.0037Z" fill="#D9D9D9"/>
<path d="M65.5347 43.5917C61.9922 41.4906 58.4497 39.3896 54.8828 37.3129C54.9317 37.2152 54.9805 37.1175 55.005 37.0197C58.5475 39.1208 62.09 41.2219 65.6569 43.2985C65.6325 43.3962 65.5836 43.494 65.5347 43.5917Z" fill="#D9D9D9"/>
<path d="M23.9531 58.006H60.5264L64.3865 17.3527H27.8132L23.9531 58.006Z" fill="#D9D9D9"/>
<path d="M23.2939 57.8838H59.8672L63.141 16.1556H26.5433L23.2939 57.8838Z" fill="#0B698B"/>
<path d="M22.6099 56.5401H59.7206L62.4569 14.7875H30.0858L22.6099 56.5401Z" fill="#9CD3D8"/>
<path d="M60.0626 57.9571H23.4648V18.2811L27.8869 13.8835H60.0626V57.9571Z" fill="white"/>
<path d="M40.127 17.3527H26.0059V39.6827H40.127V17.3527Z" fill="#D9D9D9"/>
<path d="M39.1247 18.2078L26.8848 38.681" stroke="white" stroke-miterlimit="10" stroke-linecap="round" stroke-linejoin="round"/>
<path d="M26.8848 18.2078L39.1247 38.681" stroke="white" stroke-miterlimit="10" stroke-linecap="round" stroke-linejoin="round"/>
<path d="M57.6686 17.3527H42.6924V19.0873H57.6686V17.3527Z" fill="#9CD3D8"/>
<path d="M50.8768 20.4555H42.6924V21.5549H50.8768V20.4555Z" fill="#868686"/>
<path d="M34.1903 40.4156H26.0059V41.515H34.1903V40.4156Z" fill="#868686"/>
<path d="M40.127 42.0037H26.0059V42.5656H40.127V42.0037Z" fill="#D9D9D9"/>
<path d="M40.127 43.0542H26.0059V43.6161H40.127V43.0542Z" fill="#D9D9D9"/>
<path d="M57.6686 23.3383H42.6924V23.7292H57.6686V23.3383Z" fill="#D9D9D9"/>
<path d="M57.6686 25.3905H42.6924V25.7814H57.6686V25.3905Z" fill="#D9D9D9"/>
<path d="M57.6686 27.4428H42.6924V27.8337H57.6686V27.4428Z" fill="#D9D9D9"/>
<path d="M57.6686 29.495H42.6924V29.8859H57.6686V29.495Z" fill="#D9D9D9"/>
<path d="M57.6686 31.5471H42.6924V31.938H57.6686V31.5471Z" fill="#D9D9D9"/>
<path d="M57.6686 33.5994H42.6924V33.9903H57.6686V33.5994Z" fill="#D9D9D9"/>
<path d="M57.6686 35.6761H42.6924V36.067H57.6686V35.6761Z" fill="#D9D9D9"/>
<path d="M57.6686 37.7282H42.6924V38.1191H57.6686V37.7282Z" fill="#D9D9D9"/>
<path d="M57.6686 39.7804H42.6924V40.1713H57.6686V39.7804Z" fill="#D9D9D9"/>
<path d="M57.6686 41.8326H42.6924V42.2235H57.6686V41.8326Z" fill="#D9D9D9"/>
<path d="M57.6686 43.8849H42.6924V44.2758H57.6686V43.8849Z" fill="#D9D9D9"/>
<path d="M57.6686 45.9371H42.6924V46.328H57.6686V45.9371Z" fill="#D9D9D9"/>
<path d="M60.0376 48.8199L41.8609 47.9404V46.3524C41.8609 45.0087 40.7615 43.9093 39.4178 43.9093L23.4888 43.8849V46.6944L43.8887 56.0515" fill="#D9D9D9"/>
<path d="M41.1283 48.8688V46.7189C41.1283 45.5706 40.1999 44.6422 39.0516 44.6422H20.2642V48.8932V51.5074V76.0361C20.2642 78.6991 22.4385 80.8735 25.1015 80.8735H66.1457C68.8087 80.8735 70.983 78.6991 70.983 76.0361V48.8688H41.1283Z" fill="#1F1F1F"/>
<path d="M42.6915 65.5308H23.5864V76.0606H42.6915V65.5308Z" fill="#061122"/>
<path d="M33.1392 66.9966H25.3701V74.7657H33.1392V66.9966Z" fill="#9CD3D8"/>
<path d="M41.4701 66.9966H34.6538V68.658H41.4701V66.9966Z" fill="#9CD3D8"/>
<path d="M41.4701 69.1954H34.6538V69.6352H41.4701V69.1954Z" fill="#9CD3D8"/>
<path d="M41.4701 70.1971H34.6538V70.6368H41.4701V70.1971Z" fill="#9CD3D8"/>
<path d="M35.5578 71.7852H34.6538V72.6891H35.5578V71.7852Z" fill="#9CD3D8"/>
<path d="M37.3414 71.7852H36.4375V72.6891H37.3414V71.7852Z" fill="#9CD3D8"/>
<path d="M39.1251 71.7852H38.2212V72.6891H39.1251V71.7852Z" fill="#9CD3D8"/>
<path d="M41.4704 73.8618H40.5664V74.7657H41.4704V73.8618Z" fill="#9CD3D8"/>
<path d="M23.4648 18.2811L27.8869 13.8835L27.2028 18.8674L23.4648 18.2811Z" fill="#D9D9D9"/>
<path d="M23.4648 18.2811L27.8869 13.8835V18.2811H23.4648Z" fill="#EBE6FC"/>
<path d="M85.3725 63.9183H83.5158V62.0616C83.5158 61.9883 83.4425 61.915 83.3692 61.915C83.2959 61.915 83.2226 61.9638 83.2226 62.0616V63.9183H81.3658C81.2925 63.9183 81.2192 63.9672 81.2192 64.0649C81.2192 64.1382 81.2681 64.2115 81.3658 64.2115H83.2226V66.0683C83.2226 66.1415 83.2714 66.2148 83.3692 66.2148C83.4425 66.2148 83.5158 66.166 83.5158 66.0683V64.2115H85.3725C85.4458 64.2115 85.5191 64.1382 85.5191 64.0649C85.4947 63.9672 85.4458 63.9183 85.3725 63.9183Z" fill="#9CD3D8"/>
<path d="M12.275 51.092H11.5665V50.3835C11.5665 50.3591 11.5421 50.3347 11.5176 50.3347C11.4932 50.3347 11.4688 50.3591 11.4688 50.3835V51.092H10.7603C10.7359 51.092 10.7114 51.1165 10.7114 51.1409C10.7114 51.1653 10.7359 51.1897 10.7603 51.1897H11.4688V51.8982C11.4688 51.9227 11.4932 51.9471 11.5176 51.9471C11.5421 51.9471 11.5665 51.9227 11.5665 51.8982V51.1897H12.275C12.2994 51.1897 12.3239 51.1653 12.3239 51.1409C12.3239 51.1165 12.2994 51.092 12.275 51.092Z" fill="#1D262D"/>
<path d="M76.8463 14.9585H76.1378V14.25C76.1378 14.2256 76.1134 14.2012 76.0889 14.2012C76.0645 14.2012 76.0401 14.2256 76.0401 14.25V14.9585H75.3316C75.3071 14.9585 75.2827 14.983 75.2827 15.0074C75.2827 15.0318 75.3071 15.0563 75.3316 15.0563H76.0401V15.7648C76.0401 15.7892 76.0645 15.8136 76.0889 15.8136C76.1134 15.8136 76.1378 15.7892 76.1378 15.7648V15.0563H76.8463C76.8707 15.0563 76.8952 15.0318 76.8952 15.0074C76.8952 14.983 76.8707 14.9585 76.8463 14.9585Z" fill="#1D262D"/>
</svg>
