<svg width="234" height="192" viewBox="0 0 234 192" fill="none" xmlns="http://www.w3.org/2000/svg">
<rect width="233" height="191" fill="white" fill-opacity="0.01"/>
<path d="M116.699 191.949C164.134 191.949 202.588 184.751 202.588 175.87C202.588 166.99 164.134 159.791 116.699 159.791C69.2637 159.791 30.8099 166.99 30.8099 175.87C30.8099 184.751 69.2637 191.949 116.699 191.949Z" fill="#F5F5F7" fill-opacity="0.8"/>
<path fill-rule="evenodd" clip-rule="evenodd" d="M185.409 128.633L155.1 91.2594C153.646 89.5002 151.52 88.4352 149.281 88.4352H84.1142C81.8769 88.4352 79.7511 89.5002 78.2968 91.2594L47.9885 128.633V148.158H185.411V128.633H185.409Z" fill="#AEB8C2"/>
<path fill-rule="evenodd" clip-rule="evenodd" d="M73.6676 40.1978H159.729C161.073 40.1978 162.362 40.7327 163.312 41.6849C164.262 42.637 164.796 43.9284 164.796 45.2749V163.754C164.796 165.1 164.262 166.392 163.312 167.344C162.362 168.296 161.073 168.831 159.729 168.831H73.6676C72.3237 168.831 71.0348 168.296 70.0844 167.344C69.1341 166.392 68.6002 165.1 68.6002 163.754V45.2749C68.6002 43.9284 69.1341 42.637 70.0844 41.6849C71.0348 40.7327 72.3237 40.1978 73.6676 40.1978V40.1978Z" fill="#F5F5F7"/>
<path fill-rule="evenodd" clip-rule="evenodd" d="M84.8768 52.8309H148.52C149.192 52.8309 149.836 53.0983 150.311 53.5744C150.787 54.0505 151.054 54.6962 151.054 55.3694V87.0466C151.054 87.7199 150.787 88.3656 150.311 88.8417C149.836 89.3177 149.192 89.5852 148.52 89.5852H84.8768C84.2048 89.5852 83.5604 89.3177 83.0852 88.8417C82.61 88.3656 82.3431 87.7199 82.3431 87.0466V55.3694C82.3431 54.6962 82.61 54.0505 83.0852 53.5744C83.5604 53.0983 84.2048 52.8309 84.8768 52.8309ZM85.2087 103.366H148.188C148.948 103.366 149.677 103.668 150.214 104.207C150.752 104.745 151.054 105.475 151.054 106.237C151.054 106.998 150.752 107.728 150.214 108.267C149.677 108.805 148.948 109.108 148.188 109.108H85.2087C84.4487 109.108 83.7198 108.805 83.1824 108.267C82.645 107.728 82.3431 106.998 82.3431 106.237C82.3431 105.475 82.645 104.745 83.1824 104.207C83.7198 103.668 84.4487 103.366 85.2087 103.366ZM85.2087 118.296H148.188C148.948 118.296 149.677 118.599 150.215 119.137C150.752 119.676 151.054 120.406 151.054 121.168C151.054 121.929 150.752 122.66 150.215 123.198C149.677 123.737 148.948 124.04 148.188 124.04H85.2087C84.4485 124.04 83.7195 123.737 83.182 123.198C82.6444 122.66 82.3425 121.929 82.3425 121.168C82.3425 120.406 82.6444 119.676 83.182 119.137C83.7195 118.599 84.4485 118.296 85.2087 118.296ZM185.129 173.512C184.148 177.41 180.699 180.315 176.597 180.315H56.7995C52.6974 180.315 49.249 177.409 48.2685 173.512C48.0815 172.769 47.987 172.006 47.9872 171.24V128.634H81.3283C85.0111 128.634 87.9793 131.741 87.9793 135.514V135.565C87.9793 139.336 90.9818 142.381 94.6645 142.381H138.732C142.415 142.381 145.417 139.308 145.417 135.535V135.52C145.417 131.748 148.386 128.633 152.068 128.633H185.409V171.241C185.409 172.024 185.312 172.785 185.129 173.512Z" fill="#DCE0E6"/>
<path fill-rule="evenodd" clip-rule="evenodd" d="M189.32 42.2566L180.667 45.6202C180.445 45.7068 180.203 45.7287 179.969 45.6836C179.735 45.6384 179.518 45.5279 179.344 45.3648C179.169 45.2017 179.045 44.9926 178.984 44.7616C178.923 44.5306 178.928 44.2871 178.999 44.059L181.453 36.1806C178.173 32.4439 176.247 27.8872 176.247 22.97C176.247 10.2836 189.065 0 204.878 0C220.687 0 233.507 10.2836 233.507 22.97C233.507 35.6564 220.689 45.94 204.877 45.94C199.141 45.94 193.8 44.587 189.32 42.2566Z" fill="#DCE0E6"/>
<path d="M216.156 27.118C218.149 27.118 219.765 25.5183 219.765 23.545C219.765 21.5717 218.149 19.972 216.156 19.972C214.162 19.972 212.547 21.5717 212.547 23.545C212.547 25.5183 214.162 27.118 216.156 27.118Z" fill="white"/>
<path fill-rule="evenodd" clip-rule="evenodd" d="M197.209 26.6712H189.99L193.662 20.4188L197.209 26.6712ZM201.72 20.4188H208.035V26.6712H201.72V20.4188Z" fill="white"/>
</svg>
