<svg width="10" height="12" viewBox="0 0 10 12" fill="none" xmlns="http://www.w3.org/2000/svg">
<path fill-rule="evenodd" clip-rule="evenodd" d="M0.645917 7.14592C0.692363 7.09935 0.747538 7.06241 0.808284 7.0372C0.869029 7.012 0.93415 6.99902 0.999917 6.99902C1.06568 6.99902 1.13081 7.012 1.19155 7.0372C1.2523 7.06241 1.30747 7.09935 1.35392 7.14592L4.99992 10.7929L8.64592 7.14592C8.7398 7.05203 8.86714 6.99929 8.99992 6.99929C9.13269 6.99929 9.26003 7.05203 9.35392 7.14592C9.4478 7.2398 9.50055 7.36714 9.50055 7.49992C9.50055 7.63269 9.4478 7.76003 9.35392 7.85392L5.35392 11.8539C5.30747 11.9005 5.2523 11.9374 5.19155 11.9626C5.1308 11.9878 5.06568 12.0008 4.99992 12.0008C4.93415 12.0008 4.86903 11.9878 4.80828 11.9626C4.74754 11.9374 4.69236 11.9005 4.64592 11.8539L0.645917 7.85392C0.599354 7.80747 0.562411 7.7523 0.537205 7.69155C0.511998 7.63081 0.499023 7.56568 0.499023 7.49992C0.499023 7.43415 0.511998 7.36903 0.537205 7.30828C0.562411 7.24754 0.599354 7.19236 0.645917 7.14592ZM0.645917 4.85392C0.692363 4.90048 0.747538 4.93742 0.808284 4.96263C0.869029 4.98784 0.93415 5.00081 0.999917 5.00081C1.06568 5.00081 1.13081 4.98784 1.19155 4.96263C1.2523 4.93742 1.30747 4.90048 1.35392 4.85392L4.99992 1.20692L8.64592 4.85392C8.7398 4.9478 8.86714 5.00055 8.99992 5.00055C9.13269 5.00055 9.26003 4.9478 9.35392 4.85392C9.4478 4.76003 9.50055 4.63269 9.50055 4.49992C9.50055 4.36714 9.4478 4.2398 9.35392 4.14592L5.35392 0.145917C5.30747 0.0993539 5.2523 0.0624112 5.19155 0.0372047C5.1308 0.0119983 5.06568 -0.000976562 4.99992 -0.000976562C4.93415 -0.000976562 4.86903 0.0119983 4.80828 0.0372047C4.74754 0.0624112 4.69236 0.0993539 4.64592 0.145917L0.645917 4.14592C0.599354 4.19236 0.562411 4.24754 0.537205 4.30828C0.511998 4.36903 0.499023 4.43415 0.499023 4.49992C0.499023 4.56568 0.511998 4.63081 0.537205 4.69155C0.562411 4.7523 0.599354 4.80747 0.645917 4.85392Z" fill="#6B7280"/>
</svg>
