<svg width="11" height="11" viewBox="0 0 11 11" fill="none" xmlns="http://www.w3.org/2000/svg">
<g clip-path="url(#clip0_427_327)">
<path d="M7.41661 5.5C7.41661 5.90678 7.25502 6.29689 6.96739 6.58452C6.67976 6.87216 6.28964 7.03375 5.88287 7.03375C5.47609 7.03375 5.08598 6.87216 4.79834 6.58452C4.51071 6.29689 4.34912 5.90678 4.34912 5.5C4.34912 5.09323 4.51071 4.70311 4.79834 4.41548C5.08598 4.12785 5.47609 3.96626 5.88287 3.96626C6.28964 3.96626 6.67976 4.12785 6.96739 4.41548C7.25502 4.70311 7.41661 5.09323 7.41661 5.5V5.5Z" fill="white"/>
<path fill-rule="evenodd" clip-rule="evenodd" d="M0.974854 5.5C0.974854 5.5 2.81535 2.12576 5.88284 2.12576C8.95033 2.12576 10.7908 5.5 10.7908 5.5C10.7908 5.5 8.95033 8.87424 5.88284 8.87424C2.81535 8.87424 0.974854 5.5 0.974854 5.5ZM5.88284 7.64724C6.45232 7.64724 6.99848 7.42101 7.40117 7.01833C7.80386 6.61564 8.03008 6.06948 8.03008 5.5C8.03008 4.93051 7.80386 4.38435 7.40117 3.98167C6.99848 3.57898 6.45232 3.35275 5.88284 3.35275C5.31336 3.35275 4.7672 3.57898 4.36451 3.98167C3.96182 4.38435 3.7356 4.93051 3.7356 5.5C3.7356 6.06948 3.96182 6.61564 4.36451 7.01833C4.7672 7.42101 5.31336 7.64724 5.88284 7.64724V7.64724Z" fill="white"/>
</g>
<defs>
<clipPath id="clip0_427_327">
<rect width="9.81597" height="9.81597" fill="white" transform="translate(0.974854 0.59201)"/>
</clipPath>
</defs>
</svg>
