<svg width="16" height="17" viewBox="0 0 16 17" fill="none" xmlns="http://www.w3.org/2000/svg">
<path d="M6.22875 15.3611V11.6614C6.22875 11.4027 6.46832 11.1389 6.70788 11.1389H8.62442C8.86399 11.1389 9.10356 11.4027 9.10356 11.6666V15.3611C9.10356 15.5011 9.15404 15.6353 9.24389 15.7343C9.33375 15.8333 9.45562 15.8889 9.5827 15.8889H13.4158C13.5429 15.8889 13.6647 15.8333 13.7546 15.7343C13.8444 15.6353 13.8949 15.5011 13.8949 15.3611V7.97219C13.895 7.90284 13.8827 7.83414 13.8587 7.77002C13.8347 7.7059 13.7995 7.64763 13.755 7.59853L12.4575 6.17036V2.69441C12.4575 2.55444 12.407 2.4202 12.3172 2.32122C12.2273 2.22224 12.1054 2.16664 11.9784 2.16664H11.0201C10.893 2.16664 10.7712 2.22224 10.6813 2.32122C10.5914 2.4202 10.541 2.55444 10.541 2.69441V4.05925L8.00538 1.26519C7.96087 1.21604 7.908 1.17705 7.84979 1.15044C7.79158 1.12383 7.72918 1.11014 7.66615 1.11014C7.60313 1.11014 7.54073 1.12383 7.48252 1.15044C7.42431 1.17705 7.37143 1.21604 7.32693 1.26519L1.5773 7.59853C1.53284 7.64763 1.49759 7.7059 1.47359 7.77002C1.44958 7.83414 1.43728 7.90284 1.43739 7.97219V15.3611C1.43739 15.5011 1.48787 15.6353 1.57773 15.7343C1.66758 15.8333 1.78945 15.8889 1.91653 15.8889H5.74961C5.87669 15.8889 5.99856 15.8333 6.08841 15.7343C6.17827 15.6353 6.22875 15.5011 6.22875 15.3611Z" fill="#6B7280"/>
</svg>
