<svg width="25" height="25" viewBox="0 0 25 25" fill="none" xmlns="http://www.w3.org/2000/svg">
<g clip-path="url(#clip0_886_1843)">
<path d="M8.85107 15.1896L2.79316 12.4313C2.37154 12.2393 2.3848 11.6497 2.78548 11.4641L2.85196 11.4383L16.4785 7.08862C16.8709 6.9634 17.2394 7.30843 17.165 7.69396L17.1441 7.7715L12.448 21.2825C12.2959 21.7201 11.7076 21.7615 11.4857 21.3797L11.4538 21.3159L8.85107 15.1896ZM4.49277 12.0337L9.14922 14.1539L12.5227 10.8661C12.716 10.6777 13.0157 10.6656 13.2225 10.8273L13.2766 10.8757C13.4649 11.069 13.477 11.3687 13.3153 11.5756L13.2669 11.6295L9.89342 14.9174L11.8947 19.6271L15.7871 8.4285L4.49277 12.0337Z" fill="white"/>
</g>
<defs>
<clipPath id="clip0_886_1843">
<rect width="17.0584" height="17.0584" fill="white" transform="translate(0 11.9072) rotate(-44.2684)"/>
</clipPath>
</defs>
</svg>
