<svg width="19" height="17" viewBox="0 0 19 17" fill="none" xmlns="http://www.w3.org/2000/svg">
<path d="M18.762 2.10202C18.9144 2.2388 19 2.42404 19 2.61717C19 2.81029 18.9144 2.99554 18.762 3.13232L17.0606 4.65587L13.7982 1.73719L15.4995 0.213637C15.6525 0.0768455 15.8599 0 16.0762 0C16.2925 0 16.4999 0.0768455 16.6528 0.213637L18.762 2.10056V2.10202ZM15.9073 5.68616L12.6449 2.76748L1.53127 12.7114C1.44149 12.7917 1.3739 12.8897 1.33389 12.9974L0.0207425 16.5203C-0.00307229 16.5845 -0.00645362 16.6534 0.0109768 16.7192C0.0284071 16.7851 0.0659627 16.8453 0.119445 16.8931C0.172927 16.941 0.240229 16.9746 0.313829 16.9902C0.387428 17.0058 0.464425 17.0027 0.536213 16.9814L4.47402 15.8067C4.59434 15.7713 4.70381 15.7113 4.79374 15.6316L15.9073 5.68762V5.68616Z" fill="#0B698B"/>
</svg>
