<svg width="13" height="14" viewBox="0 0 13 14" fill="none" xmlns="http://www.w3.org/2000/svg">
<path fill-rule="evenodd" clip-rule="evenodd" d="M6.50102 2.85795C7.58167 2.85837 8.63309 3.20888 9.49782 3.85699C10.3625 4.5051 10.994 5.41592 11.2977 6.45303C11.6013 7.49014 11.5608 8.59771 11.1821 9.60985C10.8035 10.622 10.1071 11.4842 9.19736 12.0674C8.28758 12.6506 7.21335 12.9233 6.13556 12.8447C5.05778 12.7661 4.03446 12.3405 3.21887 11.6316C2.40329 10.9226 1.83934 9.9685 1.61149 8.91215C1.38365 7.85579 1.50418 6.75406 1.95502 5.77195C2.0041 5.65255 2.00508 5.51879 1.95778 5.39867C1.91047 5.27856 1.81854 5.18139 1.70123 5.12752C1.58391 5.07364 1.45031 5.06723 1.32837 5.10962C1.20643 5.15201 1.10562 5.23992 1.04702 5.35495C0.506035 6.53354 0.36146 7.85568 0.634955 9.12333C0.90845 10.391 1.58529 11.5359 2.5641 12.3866C3.54291 13.2373 4.77099 13.748 6.06438 13.8421C7.35778 13.9363 8.64687 13.6088 9.73856 12.9089C10.8302 12.2089 11.6658 11.1741 12.12 9.95939C12.5742 8.74471 12.6226 7.41557 12.258 6.17106C11.8934 4.92655 11.1354 3.83366 10.0975 3.0561C9.05969 2.27854 7.79784 1.85817 6.50102 1.85795V2.85795Z" fill="#F8F8F8"/>
<path d="M6.50102 4.32395V0.39195C6.50101 0.344447 6.48746 0.297932 6.46196 0.257852C6.43646 0.217771 6.40007 0.185786 6.35705 0.16564C6.31403 0.145494 6.26616 0.138021 6.21905 0.144098C6.17193 0.150175 6.12753 0.169548 6.09102 0.199951L3.73102 2.16595C3.70289 2.18941 3.68025 2.21877 3.66472 2.25195C3.64919 2.28513 3.64114 2.32132 3.64114 2.35795C3.64114 2.39458 3.64919 2.43077 3.66472 2.46395C3.68025 2.49713 3.70289 2.52649 3.73102 2.54995L6.09102 4.51595C6.12753 4.54635 6.17193 4.56573 6.21905 4.5718C6.26616 4.57788 6.31403 4.57041 6.35705 4.55026C6.40007 4.53012 6.43646 4.49813 6.46196 4.45805C6.48746 4.41797 6.50101 4.37145 6.50102 4.32395Z" fill="#F8F8F8"/>
</svg>
