<svg width="14" height="12" viewBox="0 0 14 12" fill="none" xmlns="http://www.w3.org/2000/svg">
<path d="M4.52716 3.98225C4.63632 3.98225 4.741 4.02039 4.81818 4.08828C4.89536 4.15617 4.93873 4.24825 4.93873 4.34427V8.68854C4.93873 8.78455 4.89536 8.87664 4.81818 8.94453C4.741 9.01242 4.63632 9.05056 4.52716 9.05056C4.41801 9.05056 4.31333 9.01242 4.23614 8.94453C4.15896 8.87664 4.1156 8.78455 4.1156 8.68854V4.34427C4.1156 4.24825 4.15896 4.15617 4.23614 4.08828C4.31333 4.02039 4.41801 3.98225 4.52716 3.98225V3.98225ZM6.58498 3.98225C6.69413 3.98225 6.79881 4.02039 6.87599 4.08828C6.95318 4.15617 6.99654 4.24825 6.99654 4.34427V8.68854C6.99654 8.78455 6.95318 8.87664 6.87599 8.94453C6.79881 9.01242 6.69413 9.05056 6.58498 9.05056C6.47582 9.05056 6.37114 9.01242 6.29396 8.94453C6.21677 8.87664 6.17341 8.78455 6.17341 8.68854V4.34427C6.17341 4.24825 6.21677 4.15617 6.29396 4.08828C6.37114 4.02039 6.47582 3.98225 6.58498 3.98225V3.98225ZM9.05435 4.34427C9.05435 4.24825 9.01099 4.15617 8.93381 4.08828C8.85662 4.02039 8.75194 3.98225 8.64279 3.98225C8.53364 3.98225 8.42895 4.02039 8.35177 4.08828C8.27459 4.15617 8.23123 4.24825 8.23123 4.34427V8.68854C8.23123 8.78455 8.27459 8.87664 8.35177 8.94453C8.42895 9.01242 8.53364 9.05056 8.64279 9.05056C8.75194 9.05056 8.85662 9.01242 8.93381 8.94453C9.01099 8.87664 9.05435 8.78455 9.05435 8.68854V4.34427Z" fill="#BA0000"/>
<path fill-rule="evenodd" clip-rule="evenodd" d="M11.9353 2.17214C11.9353 2.36416 11.8486 2.54833 11.6942 2.68411C11.5399 2.8199 11.3305 2.89618 11.1122 2.89618H10.7006V9.41259C10.7006 9.79664 10.5272 10.165 10.2184 10.4365C9.90971 10.7081 9.49098 10.8607 9.05437 10.8607H4.11562C3.67901 10.8607 3.26027 10.7081 2.95154 10.4365C2.64281 10.165 2.46937 9.79664 2.46937 9.41259V2.89618H2.05781C1.8395 2.89618 1.63013 2.8199 1.47577 2.68411C1.3214 2.54833 1.23468 2.36416 1.23468 2.17214V1.44809C1.23468 1.25606 1.3214 1.0719 1.47577 0.936113C1.63013 0.800328 1.8395 0.724045 2.05781 0.724045H4.93874C4.93874 0.532016 5.02546 0.347853 5.17983 0.212068C5.3342 0.0762831 5.54356 0 5.76187 0L7.40812 0C7.62642 0 7.83579 0.0762831 7.99015 0.212068C8.14452 0.347853 8.23124 0.532016 8.23124 0.724045H11.1122C11.3305 0.724045 11.5399 0.800328 11.6942 0.936113C11.8486 1.0719 11.9353 1.25606 11.9353 1.44809V2.17214ZM3.38962 2.89618L3.29249 2.9389V9.41259C3.29249 9.60462 3.37921 9.78878 3.53358 9.92456C3.68795 10.0603 3.89731 10.1366 4.11562 10.1366H9.05437C9.27267 10.1366 9.48204 10.0603 9.6364 9.92456C9.79077 9.78878 9.87749 9.60462 9.87749 9.41259V2.9389L9.78036 2.89618H3.38962ZM2.05781 2.17214V1.44809H11.1122V2.17214H2.05781Z" fill="#BA0000"/>
</svg>
