<svg width="18" height="24" viewBox="0 0 18 24" fill="none" xmlns="http://www.w3.org/2000/svg">
<path d="M10.9395 0H3C2.20435 0 1.44129 0.316071 0.87868 0.87868C0.31607 1.44129 0 2.20435 0 3V21C0 21.7956 0.31607 22.5587 0.87868 23.1213C1.44129 23.6839 2.20435 24 3 24H15C15.7956 24 16.5587 23.6839 17.1213 23.1213C17.6839 22.5587 18 21.7956 18 21V7.0605C17.9999 6.66271 17.8418 6.28124 17.5605 6L12 0.4395C11.7188 0.158176 11.3373 8.49561e-05 10.9395 0V0ZM11.25 5.25V2.25L15.75 6.75H12.75C12.3522 6.75 11.9706 6.59196 11.6893 6.31066C11.408 6.02936 11.25 5.64782 11.25 5.25ZM7.281 10.719L9 12.4395L10.719 10.719C10.8598 10.5782 11.0508 10.4991 11.25 10.4991C11.4492 10.4991 11.6402 10.5782 11.781 10.719C11.9218 10.8598 12.0009 11.0508 12.0009 11.25C12.0009 11.4492 11.9218 11.6402 11.781 11.781L10.0605 13.5L11.781 15.219C11.9218 15.3598 12.0009 15.5508 12.0009 15.75C12.0009 15.9492 11.9218 16.1402 11.781 16.281C11.6402 16.4218 11.4492 16.5009 11.25 16.5009C11.0508 16.5009 10.8598 16.4218 10.719 16.281L9 14.5605L7.281 16.281C7.14017 16.4218 6.94916 16.5009 6.75 16.5009C6.55084 16.5009 6.35983 16.4218 6.219 16.281C6.07817 16.1402 5.99905 15.9492 5.99905 15.75C5.99905 15.5508 6.07817 15.3598 6.219 15.219L7.9395 13.5L6.219 11.781C6.14927 11.7113 6.09395 11.6285 6.05621 11.5374C6.01848 11.4463 5.99905 11.3486 5.99905 11.25C5.99905 11.1514 6.01848 11.0537 6.05621 10.9626C6.09395 10.8715 6.14927 10.7887 6.219 10.719C6.28873 10.6493 6.37152 10.594 6.46262 10.5562C6.55373 10.5185 6.65138 10.4991 6.75 10.4991C6.84862 10.4991 6.94627 10.5185 7.03738 10.5562C7.12848 10.594 7.21127 10.6493 7.281 10.719Z" fill="#F8F8F8"/>
</svg>
