<svg width="18" height="24" viewBox="0 0 18 24" fill="none" xmlns="http://www.w3.org/2000/svg">
<path d="M10.9395 0H3C2.20435 0 1.44129 0.316071 0.87868 0.87868C0.31607 1.44129 0 2.20435 0 3V21C0 21.7956 0.31607 22.5587 0.87868 23.1213C1.44129 23.6839 2.20435 24 3 24H15C15.7956 24 16.5587 23.6839 17.1213 23.1213C17.6839 22.5587 18 21.7956 18 21V7.0605C17.9999 6.66271 17.8418 6.28124 17.5605 6L12 0.4395C11.7188 0.158176 11.3373 8.49561e-05 10.9395 0V0ZM11.25 5.25V2.25L15.75 6.75H12.75C12.3522 6.75 11.9706 6.59196 11.6893 6.31066C11.408 6.02936 11.25 5.64782 11.25 5.25ZM13.281 11.781L8.781 16.281C8.71133 16.3508 8.62857 16.4063 8.53745 16.4441C8.44633 16.4819 8.34865 16.5013 8.25 16.5013C8.15135 16.5013 8.05367 16.4819 7.96255 16.4441C7.87143 16.4063 7.78867 16.3508 7.719 16.281L5.469 14.031C5.39927 13.9613 5.34395 13.8785 5.30621 13.7874C5.26848 13.6963 5.24905 13.5986 5.24905 13.5C5.24905 13.4014 5.26848 13.3037 5.30621 13.2126C5.34395 13.1215 5.39927 13.0387 5.469 12.969C5.60983 12.8282 5.80084 12.7491 6 12.7491C6.09862 12.7491 6.19627 12.7685 6.28738 12.8062C6.37848 12.844 6.46127 12.8993 6.531 12.969L8.25 14.6895L12.219 10.719C12.3598 10.5782 12.5508 10.4991 12.75 10.4991C12.9492 10.4991 13.1402 10.5782 13.281 10.719C13.4218 10.8598 13.5009 11.0508 13.5009 11.25C13.5009 11.4492 13.4218 11.6402 13.281 11.781Z" fill="#F8F8F8"/>
</svg>
